<svg width="20" height="20" viewBox="0 0 20 20" fill="none" xmlns="http://www.w3.org/2000/svg">
<path d="M6.00098 18.001H3.77832L5.55566 14.4453H7.77832L6.00098 18.001ZM14.4453 14.4453L16.2227 18.001H14.001L12.2227 14.4453H14.4453Z" fill="url(#paint0_linear_12825_21743)"/>
<rect x="1.11133" y="2" width="17.7778" height="13.3333" rx="1.77778" fill="url(#paint1_linear_12825_21743)"/>
<rect x="1.11133" y="2" width="17.7778" height="13.3333" rx="1.77778" fill="url(#paint2_linear_12825_21743)"/>
<g filter="url(#filter0_i_12825_21743)">
<path d="M15.334 12.668H12.667V4.66797H15.334V12.668ZM7.33398 12.667H4.66699V10H7.33398V12.667ZM11.334 12.667H8.66699V8.22266H11.334V12.667Z" fill="url(#paint3_linear_12825_21743)"/>
</g>
<defs>
<filter id="filter0_i_12825_21743" x="4.66699" y="4.66797" width="11.0225" height="8.22222" filterUnits="userSpaceOnUse" color-interpolation-filters="sRGB">
<feFlood flood-opacity="0" result="BackgroundImageFix"/>
<feBlend mode="normal" in="SourceGraphic" in2="BackgroundImageFix" result="shape"/>
<feColorMatrix in="SourceAlpha" type="matrix" values="0 0 0 0 0 0 0 0 0 0 0 0 0 0 0 0 0 0 127 0" result="hardAlpha"/>
<feOffset dx="0.355556" dy="0.222222"/>
<feGaussianBlur stdDeviation="0.222222"/>
<feComposite in2="hardAlpha" operator="arithmetic" k2="-1" k3="1"/>
<feColorMatrix type="matrix" values="0 0 0 0 0.396078 0 0 0 0 0.505882 0 0 0 0 0.356863 0 0 0 0.3 0"/>
<feBlend mode="normal" in2="shape" result="effect1_innerShadow_12825_21743"/>
</filter>
<linearGradient id="paint0_linear_12825_21743" x1="10.445" y1="16.6675" x2="10.445" y2="15.3342" gradientUnits="userSpaceOnUse">
<stop stop-color="#937254"/>
<stop offset="1" stop-color="#704C2C"/>
</linearGradient>
<linearGradient id="paint1_linear_12825_21743" x1="8.66688" y1="0.666667" x2="11.778" y2="18.8889" gradientUnits="userSpaceOnUse">
<stop stop-color="#F7FFF3"/>
<stop offset="1" stop-color="#9AA894"/>
</linearGradient>
<linearGradient id="paint2_linear_12825_21743" x1="13.5558" y1="18.8889" x2="13.5558" y2="12.6667" gradientUnits="userSpaceOnUse">
<stop stop-color="#DDF7C8"/>
<stop offset="1" stop-color="#F5FFED" stop-opacity="0"/>
</linearGradient>
<linearGradient id="paint3_linear_12825_21743" x1="10.0005" y1="6.44575" x2="10.0005" y2="15.3346" gradientUnits="userSpaceOnUse">
<stop stop-color="#75A663"/>
<stop offset="1" stop-color="#18300F"/>
</linearGradient>
</defs>
</svg>
